
<svg version="1.1" id="Layer_1" xmlns="http://www.w3.org/2000/svg" xmlns:xlink="http://www.w3.org/1999/xlink" x="0px" y="0px"
	 viewBox="0 0 148 62" enable-background="new 0 0 148 62" xml:space="preserve">
<g>
	<path fill="#DA1C5C" d="M0,0v62h62.748V0H0z M41.379,30.104c2.403,1.415,5.731,9.2,5.731,9.2s-8.513,0.813-10.917-0.601
		c-0.011-0.007-0.021-0.015-0.032-0.022c-0.569,3.031-5.004,8.996-5.004,8.996s-4.25-5.717-4.961-8.801
		c-2.788,1.168-10.559,0.427-10.559,0.427s3.329-7.785,5.733-9.2c0.046-0.027,0.095-0.048,0.141-0.074
		c-0.046-0.025-0.095-0.047-0.141-0.074c-2.404-1.415-5.733-9.2-5.733-9.2s7.646-0.729,10.49,0.399
		c0.424-2.97,5.03-9.167,5.03-9.167s5.065,6.81,5.065,9.575c0-0.068-0.005-0.142-0.011-0.215c2.425-1.401,10.899-0.592,10.899-0.592
		s-3.328,7.785-5.731,9.2c-0.046,0.027-0.095,0.049-0.142,0.074C41.284,30.056,41.333,30.077,41.379,30.104z"/>
	<ellipse fill="#DA1C5C" cx="31.374" cy="29.833" rx="3.87" ry="3.824"/>
	<g>
		<path fill="#DA1C5C" d="M78.947,54.752c-0.127,0-0.242-0.017-0.345-0.051c-0.737-0.205-1.105-0.614-1.105-1.227
			c0-0.796,0.506-1.718,1.52-2.764c1.013-1.047,1.922-1.57,2.728-1.57c0.264,0,0.48,0.071,0.647,0.213
			c0.166,0.142,0.25,0.335,0.25,0.58c0,0.244-0.075,0.501-0.225,0.768c-0.15,0.267-0.374,0.401-0.673,0.401
			c-0.299,0-0.449-0.091-0.449-0.272c0-0.126,0.078-0.316,0.233-0.572c0.155-0.256,0.233-0.392,0.233-0.41
			c0-0.017-0.017-0.025-0.052-0.025c-0.322,0.034-0.763,0.261-1.321,0.682c-0.559,0.421-0.941,0.774-1.148,1.058l-0.673,0.973
			c-0.115,0.181-0.198,0.397-0.25,0.647c-0.052,0.251-0.078,0.438-0.078,0.564c0,0.125,0.072,0.268,0.216,0.426
			c0.144,0.159,0.348,0.24,0.613,0.24c0.575,0,1.289-0.333,2.141-0.998c0.852-0.666,1.508-1.3,1.969-1.903
			c0.057-0.068,0.126-0.102,0.207-0.102c0.081,0,0.121,0.022,0.121,0.068c0,0.045-0.029,0.103-0.087,0.171
			c-0.633,0.83-1.39,1.555-2.271,2.175C80.268,54.443,79.534,54.752,78.947,54.752z"/>
		<path fill="#DA1C5C" d="M86.043,54.615c-0.863,0-1.295-0.472-1.295-1.416c0-0.478,0.126-1,0.38-1.569
			c0.253-0.569,0.53-1.046,0.829-1.433c-0.058,0.011-0.133,0.017-0.225,0.017c-0.276,0-0.506-0.193-0.69-0.58l-1.278,1.638
			c-0.714,0.875-1.128,1.314-1.243,1.314c-0.058,0-0.086-0.023-0.086-0.069c0-0.114,0.098-0.279,0.293-0.495
			c1.001-1.148,1.709-2.121,2.124-2.917c0.264-0.989,0.598-1.484,1.001-1.484c0.265,0,0.397,0.114,0.397,0.341
			c0,0.228-0.144,0.518-0.432,0.87l-0.414,0.546c0,0.238,0.178,0.358,0.535,0.358c0.207,0,0.438-0.074,0.691-0.222l0.449-0.273
			c0.023-0.011,0.081-0.017,0.173-0.017c0.092,0,0.189,0.057,0.293,0.17c0.104,0.114,0.138,0.216,0.104,0.307l-1.191,1.484
			c-0.737,0.933-1.105,1.669-1.105,2.209c0,0.54,0.253,0.811,0.76,0.811c0.529,0,1.18-0.279,1.951-0.837
			c0.46-0.33,0.88-0.7,1.26-1.109c0.357-0.41,0.553-0.614,0.587-0.614c0.08,0,0.121,0.042,0.121,0.127
			c0,0.086-0.052,0.185-0.155,0.299l-0.553,0.614c-0.311,0.319-0.656,0.626-1.036,0.921C87.378,54.28,86.63,54.615,86.043,54.615z"
			/>
		<path fill="#DA1C5C" d="M90.204,54.752c-0.126,0-0.242-0.017-0.345-0.051c-0.737-0.205-1.105-0.614-1.105-1.227
			c0-0.796,0.506-1.718,1.519-2.764c1.013-1.047,1.922-1.57,2.728-1.57c0.265,0,0.48,0.071,0.647,0.213
			c0.167,0.142,0.251,0.315,0.251,0.521c0,0.637-0.486,1.245-1.459,1.826c-0.973,0.579-1.764,0.87-2.374,0.87
			c-0.092,0-0.173-0.011-0.242-0.034c-0.173,0.307-0.259,0.63-0.259,0.972c0,0.591,0.285,0.887,0.854,0.887
			c0.57,0,1.31-0.381,2.219-1.144c0.702-0.557,1.301-1.148,1.796-1.774c0.104-0.137,0.193-0.205,0.268-0.205
			c0.075,0,0.112,0.033,0.112,0.102c0,0.068-0.046,0.165-0.138,0.29c-0.622,0.808-1.37,1.524-2.245,2.149
			C91.557,54.44,90.814,54.752,90.204,54.752z M93.468,49.839c0-0.137-0.147-0.205-0.44-0.205c-0.294,0-0.711,0.222-1.252,0.666
			c-0.725,0.592-1.289,1.211-1.692,1.86c0.069,0.023,0.144,0.033,0.225,0.033c0.437,0,1.021-0.23,1.753-0.69
			c0.73-0.46,1.188-0.964,1.372-1.51C93.457,49.936,93.468,49.884,93.468,49.839z"/>
		<path fill="#DA1C5C" d="M99.511,49.43l0.242-0.051c0.126,0,0.247,0.051,0.362,0.153c0.115,0.103,0.172,0.183,0.172,0.239
			c0,0.057-0.356,0.606-1.07,1.646c-0.714,1.041-1.07,1.765-1.07,2.175c0,0.034,0.005,0.068,0.017,0.103
			c0.058,0.262,0.184,0.392,0.38,0.392c0.599,0,1.692-0.978,3.28-2.934c0.035-0.046,0.075-0.068,0.121-0.068
			c0.046,0,0.069,0.043,0.069,0.128c0,0.085-0.052,0.196-0.156,0.332c-1.474,1.945-2.596,2.917-3.367,2.917
			c-0.104,0-0.202-0.017-0.294-0.05c-0.506-0.194-0.759-0.569-0.759-1.127c0-0.193,0.022-0.386,0.069-0.58l-1.07,1.023
			c-0.679,0.592-1.171,0.887-1.476,0.887c-0.305,0-0.596-0.096-0.872-0.29c-0.311-0.228-0.466-0.529-0.466-0.904
			c0-0.83,0.587-1.823,1.761-2.977c1.174-1.154,2.251-1.732,3.229-1.732c0.379,0,0.632,0.131,0.759,0.393
			c0.035,0.091,0.063,0.167,0.086,0.23C99.482,49.398,99.499,49.43,99.511,49.43z M94.348,53.626c0,0.409,0.144,0.614,0.432,0.614
			c0.667,0,1.577-0.722,2.728-2.167l1.83-2.491c-0.092-0.159-0.242-0.238-0.449-0.238c-0.702,0-1.635,0.537-2.797,1.612
			C94.929,52.031,94.348,52.921,94.348,53.626z"/>
		<path fill="#DA1C5C" d="M105.381,49.037l2.486-0.034c0.034,0.023,0.052,0.04,0.052,0.051c0,0.102-0.717,0.245-2.15,0.427
			c-1.433,0.182-2.207,0.29-2.322,0.324c-0.219,0.194-0.622,0.77-1.208,1.732c-0.587,0.961-0.881,1.663-0.881,2.107
			c0,0.42,0.294,0.631,0.881,0.631c0.276,0,0.639-0.085,1.087-0.256c0.449-0.17,0.794-0.33,1.037-0.478
			c0.645-0.398,1.334-0.983,2.071-1.757c0.162-0.159,0.271-0.239,0.329-0.239c0.034,0,0.052,0.035,0.052,0.103
			c0,0.068-0.086,0.204-0.259,0.409c-0.599,0.728-1.272,1.313-2.02,1.757c-0.898,0.546-1.756,0.819-2.573,0.819
			c-0.357,0-0.647-0.077-0.872-0.23c-0.224-0.154-0.337-0.464-0.337-0.93c0-0.467,0.207-1.107,0.622-1.92
			c0.414-0.813,0.73-1.419,0.95-1.817c-0.162,0.034-0.3,0.051-0.414,0.051c-0.334,0-0.501-0.131-0.501-0.393
			c0-0.193,0.138-0.329,0.414-0.409c0.035,0,0.086-0.005,0.155-0.017h1.002c0.207-0.262,0.442-0.563,0.707-0.904
			c0.322-0.41,0.541-0.614,0.656-0.614c0.115,0,0.259,0.045,0.432,0.137c0.173,0.091,0.259,0.198,0.259,0.324
			c0,0.125-0.276,0.495-0.829,1.109C104.506,49.031,104.897,49.037,105.381,49.037z"/>
		<path fill="#DA1C5C" d="M106.624,54.718c-0.587,0-0.88-0.375-0.88-1.126c0-0.614,0.339-1.464,1.019-2.55
			c0.679-1.086,1.226-1.635,1.64-1.646c0.115,0,0.245,0.045,0.389,0.136c0.144,0.091,0.215,0.183,0.215,0.273
			c-0.058,0.08-0.127,0.168-0.207,0.264c-0.081,0.097-0.167,0.202-0.259,0.316c-0.092,0.113-0.219,0.275-0.38,0.486
			c-0.161,0.211-0.316,0.413-0.466,0.606c-0.864,1.104-1.295,1.862-1.295,2.277c0,0.415,0.144,0.623,0.431,0.623
			c0.242,0,0.57-0.131,0.984-0.393c0.967-0.591,1.732-1.239,2.297-1.944c0.207-0.261,0.348-0.392,0.423-0.392
			c0.075,0,0.112,0.045,0.112,0.136c0,0.091-0.133,0.274-0.397,0.546c-0.265,0.273-0.475,0.489-0.63,0.648
			c-0.155,0.159-0.262,0.264-0.32,0.315c-0.058,0.051-0.164,0.148-0.319,0.29c-0.155,0.142-0.273,0.242-0.354,0.299
			c-0.081,0.057-0.196,0.142-0.345,0.255c-0.15,0.114-0.282,0.196-0.397,0.248c-0.115,0.051-0.248,0.11-0.398,0.179
			C107.246,54.667,106.958,54.718,106.624,54.718z M110.241,47.731c0.156,0.108,0.233,0.236,0.233,0.384
			c0,0.147-0.072,0.275-0.216,0.384c-0.144,0.108-0.302,0.162-0.475,0.162c-0.172,0-0.331-0.063-0.475-0.188
			c-0.144-0.125-0.216-0.267-0.216-0.426c0-0.318,0.219-0.478,0.656-0.478C109.922,47.57,110.086,47.624,110.241,47.731z"/>
		<path fill="#DA1C5C" d="M114.411,50.913c0,0.399-0.386,1.064-1.157,1.997c-0.91,1.104-1.687,1.655-2.331,1.655h-0.276
			c-0.299,0-0.535-0.153-0.708-0.461c-0.138-0.216-0.207-0.455-0.207-0.716c0-0.683,0.503-1.641,1.511-2.875
			c1.007-1.234,1.822-1.851,2.443-1.851c0.587,0,0.881,0.307,0.881,0.921c0,0.16-0.029,0.365-0.086,0.615
			c0.011,0.034,0.121,0.051,0.328,0.051c0.207,0,0.524-0.108,0.95-0.324c-0.012,0.193-0.466,0.473-1.364,0.836
			C114.405,50.806,114.411,50.857,114.411,50.913z M113.289,50.026c-0.391,0-0.947,0.456-1.666,1.365
			c-0.72,0.91-1.079,1.582-1.079,2.014c0,0.433,0.138,0.648,0.414,0.648c0.495,0,1.122-0.444,1.882-1.331
			c0.76-0.887,1.14-1.523,1.14-1.911C113.795,50.709,113.565,50.447,113.289,50.026z"/>
		<path fill="#DA1C5C" d="M117.537,49.139c0.311,0,0.466,0.12,0.466,0.358c0,0.068-0.018,0.137-0.052,0.205
			c-1.036,1.422-1.658,2.496-1.865,3.225c2.682-2.65,4.311-3.975,4.887-3.975c0.057-0.011,0.109-0.017,0.155-0.017
			c0.322,0,0.483,0.142,0.483,0.426c0,0.057-0.011,0.114-0.035,0.17c-0.023,0.058-0.253,0.364-0.69,0.921
			c-0.507,0.592-0.936,1.161-1.286,1.707c-0.352,0.545-0.527,1-0.527,1.364c0,0.365,0.08,0.546,0.242,0.546
			c0.506,0,1.387-0.688,2.642-2.064c0.023-0.023,0.063-0.074,0.121-0.154c0.172-0.204,0.276-0.307,0.311-0.307
			c0.035,0,0.052,0.057,0.052,0.171c0,0.113-0.081,0.262-0.242,0.444c-1.427,1.604-2.44,2.405-3.039,2.405
			c-0.564,0-0.846-0.307-0.846-0.921c0-0.614,0.23-1.319,0.69-2.115l1.105-1.774c-0.783,0.569-1.479,1.192-2.089,1.868
			c-0.61,0.677-1.166,1.333-1.666,1.97c-0.501,0.637-0.792,0.955-0.872,0.955c-0.173,0-0.308-0.07-0.406-0.213
			c-0.098-0.142-0.147-0.318-0.147-0.529c0-0.21,0.075-0.492,0.225-0.844c0.149-0.353,0.339-0.779,0.57-1.279l-1.036,1.074
			c-0.253,0.251-0.412,0.375-0.475,0.375c-0.063,0-0.095-0.036-0.095-0.11c0-0.074,0.046-0.156,0.138-0.248
			c0.426-0.421,0.794-0.825,1.105-1.211c0.299-0.387,0.915-1.126,1.848-2.218C117.312,49.207,117.421,49.139,117.537,49.139z"/>
	</g>
	<g>
		<g>
			<path fill="#58595B" d="M83.567,32.306l-1.128,2.097v7.045h-3.647V18.511h3.647v9.994l4.842-9.994h3.582l-5.074,10.223
				l5.074,12.714h-3.748L83.567,32.306z"/>
			<path fill="#58595B" d="M96.168,28.177h5.008v3.277h-5.008v6.717h6.301v3.277H92.52V18.511h9.949v3.276h-6.301V28.177z"/>
			<path fill="#58595B" d="M112.351,41.448c-0.199-0.59-0.331-0.951-0.331-2.818v-3.604c0-2.13-0.73-2.917-2.388-2.917h-1.26v9.339
				h-3.648V18.511h5.505c3.78,0,5.405,1.736,5.405,5.275v1.802c0,2.359-0.763,3.899-2.388,4.653c1.824,0.753,2.421,2.49,2.421,4.882
				v3.54c0,1.113,0.033,1.933,0.398,2.785H112.351z M108.372,21.788v7.045h1.426c1.36,0,2.188-0.59,2.188-2.426v-2.261
				c0-1.638-0.563-2.359-1.857-2.359H108.372z"/>
			<path fill="#58595B" d="M125.682,41.448c-0.199-0.59-0.331-0.951-0.331-2.818v-3.604c0-2.13-0.73-2.917-2.388-2.917h-1.26v9.339
				h-3.647V18.511h5.505c3.78,0,5.405,1.736,5.405,5.275v1.802c0,2.359-0.763,3.899-2.387,4.653c1.823,0.753,2.42,2.49,2.42,4.882
				v3.54c0,1.113,0.033,1.933,0.398,2.785H125.682z M121.703,21.788v7.045h1.426c1.36,0,2.189-0.59,2.189-2.426v-2.261
				c0-1.638-0.564-2.359-1.857-2.359H121.703z"/>
			<path fill="#58595B" d="M131.386,18.511h3.647v22.937h-3.647V18.511z"/>
			<path fill="#58595B" d="M142.594,18.249c3.548,0,5.372,2.097,5.372,5.767V24.9h-3.449v-1.114c0-1.639-0.663-2.261-1.824-2.261
				c-1.161,0-1.824,0.623-1.824,2.261c0,4.718,7.13,5.603,7.13,12.156c0,3.67-1.857,5.767-5.439,5.767
				c-3.581,0-5.439-2.097-5.439-5.767V34.37h3.449v1.802c0,1.639,0.73,2.228,1.89,2.228c1.161,0,1.89-0.589,1.89-2.228
				c0-4.718-7.129-5.603-7.129-12.156C137.222,20.346,139.046,18.249,142.594,18.249z"/>
		</g>
	</g>
</g>
</svg>
