<?xml version="1.0" encoding="utf-8"?>
<!-- Generator: Adobe Illustrator 17.1.0, SVG Export Plug-In . SVG Version: 6.00 Build 0)  -->
<!DOCTYPE svg PUBLIC "-//W3C//DTD SVG 1.1//EN" "http://www.w3.org/Graphics/SVG/1.1/DTD/svg11.dtd">
<svg version="1.1" id="Layer_1" xmlns="http://www.w3.org/2000/svg" xmlns:xlink="http://www.w3.org/1999/xlink" x="0px" y="0px"
	 viewBox="0 0 148 62" enable-background="new 0 0 148 62" xml:space="preserve">
<g>
	<g>
		<path fill="#DA1C5C" d="M0,0v62h62.7V0H0z"/>
		<path fill="#FFFFFF" d="M41.4,31.3c2.4,1.4,5.7,9.2,5.7,9.2s-8.5,0.8-10.9-0.6c0,0,0,0,0,0c-0.6,3-5,9-5,9s-4.3-5.7-5-8.8
			c-2.8,1.2-10.6,0.4-10.6,0.4s3.3-7.8,5.7-9.2c0,0,0.1,0,0.1-0.1c0,0-0.1,0-0.1-0.1c-2.4-1.4-5.7-9.2-5.7-9.2s7.6-0.7,10.5,0.4
			c0.4-3,5-9.2,5-9.2s5.1,6.8,5.1,9.6c0-0.1,0-0.1,0-0.2c2.4-1.4,10.9-0.6,10.9-0.6s-3.3,7.8-5.7,9.2c0,0-0.1,0-0.1,0.1
			C41.3,31.2,41.3,31.2,41.4,31.3z"/>
		<ellipse fill="#DA1C5C" cx="31.4" cy="31" rx="3.9" ry="3.8"/>
	</g>
	<g>
		<path fill="#DA1C5C" d="M78.9,54.8c-0.1,0-0.2,0-0.3-0.1c-0.7-0.2-1.1-0.6-1.1-1.2c0-0.8,0.5-1.7,1.5-2.8c1-1,1.9-1.6,2.7-1.6
			c0.3,0,0.5,0.1,0.6,0.2c0.2,0.1,0.3,0.3,0.3,0.6c0,0.2-0.1,0.5-0.2,0.8c-0.1,0.3-0.4,0.4-0.7,0.4c-0.3,0-0.4-0.1-0.4-0.3
			c0-0.1,0.1-0.3,0.2-0.6c0.2-0.3,0.2-0.4,0.2-0.4c0,0,0,0-0.1,0c-0.3,0-0.8,0.3-1.3,0.7c-0.6,0.4-0.9,0.8-1.1,1.1l-0.7,1
			c-0.1,0.2-0.2,0.4-0.3,0.6c-0.1,0.3-0.1,0.4-0.1,0.6c0,0.1,0.1,0.3,0.2,0.4c0.1,0.2,0.3,0.2,0.6,0.2c0.6,0,1.3-0.3,2.1-1
			c0.9-0.7,1.5-1.3,2-1.9c0.1-0.1,0.1-0.1,0.2-0.1c0.1,0,0.1,0,0.1,0.1c0,0,0,0.1-0.1,0.2c-0.6,0.8-1.4,1.6-2.3,2.2
			C80.3,54.4,79.5,54.8,78.9,54.8z"/>
		<path fill="#DA1C5C" d="M86,54.6c-0.9,0-1.3-0.5-1.3-1.4c0-0.5,0.1-1,0.4-1.6c0.3-0.6,0.5-1,0.8-1.4c-0.1,0-0.1,0-0.2,0
			c-0.3,0-0.5-0.2-0.7-0.6l-1.3,1.6c-0.7,0.9-1.1,1.3-1.2,1.3c-0.1,0-0.1,0-0.1-0.1c0-0.1,0.1-0.3,0.3-0.5c1-1.1,1.7-2.1,2.1-2.9
			c0.3-1,0.6-1.5,1-1.5c0.3,0,0.4,0.1,0.4,0.3c0,0.2-0.1,0.5-0.4,0.9l-0.4,0.5c0,0.2,0.2,0.4,0.5,0.4c0.2,0,0.4-0.1,0.7-0.2l0.4-0.3
			c0,0,0.1,0,0.2,0c0.1,0,0.2,0.1,0.3,0.2c0.1,0.1,0.1,0.2,0.1,0.3l-1.2,1.5c-0.7,0.9-1.1,1.7-1.1,2.2c0,0.5,0.3,0.8,0.8,0.8
			c0.5,0,1.2-0.3,2-0.8c0.5-0.3,0.9-0.7,1.3-1.1c0.4-0.4,0.6-0.6,0.6-0.6c0.1,0,0.1,0,0.1,0.1c0,0.1-0.1,0.2-0.2,0.3l-0.6,0.6
			c-0.3,0.3-0.7,0.6-1,0.9C87.4,54.3,86.6,54.6,86,54.6z"/>
		<path fill="#DA1C5C" d="M90.2,54.8c-0.1,0-0.2,0-0.3-0.1c-0.7-0.2-1.1-0.6-1.1-1.2c0-0.8,0.5-1.7,1.5-2.8c1-1,1.9-1.6,2.7-1.6
			c0.3,0,0.5,0.1,0.6,0.2c0.2,0.1,0.3,0.3,0.3,0.5c0,0.6-0.5,1.2-1.5,1.8c-1,0.6-1.8,0.9-2.4,0.9c-0.1,0-0.2,0-0.2,0
			c-0.2,0.3-0.3,0.6-0.3,1c0,0.6,0.3,0.9,0.9,0.9c0.6,0,1.3-0.4,2.2-1.1c0.7-0.6,1.3-1.1,1.8-1.8c0.1-0.1,0.2-0.2,0.3-0.2
			c0.1,0,0.1,0,0.1,0.1c0,0.1,0,0.2-0.1,0.3c-0.6,0.8-1.4,1.5-2.2,2.1C91.6,54.4,90.8,54.8,90.2,54.8z M93.5,49.8
			c0-0.1-0.1-0.2-0.4-0.2c-0.3,0-0.7,0.2-1.3,0.7c-0.7,0.6-1.3,1.2-1.7,1.9c0.1,0,0.1,0,0.2,0c0.4,0,1-0.2,1.8-0.7
			c0.7-0.5,1.2-1,1.4-1.5C93.5,49.9,93.5,49.9,93.5,49.8z"/>
		<path fill="#DA1C5C" d="M99.5,49.4l0.2-0.1c0.1,0,0.2,0.1,0.4,0.2c0.1,0.1,0.2,0.2,0.2,0.2c0,0.1-0.4,0.6-1.1,1.6
			c-0.7,1-1.1,1.8-1.1,2.2c0,0,0,0.1,0,0.1c0.1,0.3,0.2,0.4,0.4,0.4c0.6,0,1.7-1,3.3-2.9c0,0,0.1-0.1,0.1-0.1c0,0,0.1,0,0.1,0.1
			c0,0.1-0.1,0.2-0.2,0.3c-1.5,1.9-2.6,2.9-3.4,2.9c-0.1,0-0.2,0-0.3,0c-0.5-0.2-0.8-0.6-0.8-1.1c0-0.2,0-0.4,0.1-0.6l-1.1,1
			c-0.7,0.6-1.2,0.9-1.5,0.9c-0.3,0-0.6-0.1-0.9-0.3c-0.3-0.2-0.5-0.5-0.5-0.9c0-0.8,0.6-1.8,1.8-3c1.2-1.2,2.3-1.7,3.2-1.7
			c0.4,0,0.6,0.1,0.8,0.4C99.4,49.2,99.4,49.3,99.5,49.4C99.5,49.4,99.5,49.4,99.5,49.4z M94.3,53.6c0,0.4,0.1,0.6,0.4,0.6
			c0.7,0,1.6-0.7,2.7-2.2l1.8-2.5c-0.1-0.2-0.2-0.2-0.4-0.2c-0.7,0-1.6,0.5-2.8,1.6C94.9,52,94.3,52.9,94.3,53.6z"/>
		<path fill="#DA1C5C" d="M105.4,49l2.5,0c0,0,0.1,0,0.1,0.1c0,0.1-0.7,0.2-2.1,0.4c-1.4,0.2-2.2,0.3-2.3,0.3
			c-0.2,0.2-0.6,0.8-1.2,1.7c-0.6,1-0.9,1.7-0.9,2.1c0,0.4,0.3,0.6,0.9,0.6c0.3,0,0.6-0.1,1.1-0.3c0.4-0.2,0.8-0.3,1-0.5
			c0.6-0.4,1.3-1,2.1-1.8c0.2-0.2,0.3-0.2,0.3-0.2c0,0,0.1,0,0.1,0.1c0,0.1-0.1,0.2-0.3,0.4c-0.6,0.7-1.3,1.3-2,1.8
			c-0.9,0.5-1.8,0.8-2.6,0.8c-0.4,0-0.6-0.1-0.9-0.2c-0.2-0.2-0.3-0.5-0.3-0.9c0-0.5,0.2-1.1,0.6-1.9c0.4-0.8,0.7-1.4,0.9-1.8
			c-0.2,0-0.3,0.1-0.4,0.1c-0.3,0-0.5-0.1-0.5-0.4c0-0.2,0.1-0.3,0.4-0.4c0,0,0.1,0,0.2,0h1c0.2-0.3,0.4-0.6,0.7-0.9
			c0.3-0.4,0.5-0.6,0.7-0.6c0.1,0,0.3,0,0.4,0.1c0.2,0.1,0.3,0.2,0.3,0.3c0,0.1-0.3,0.5-0.8,1.1C104.5,49,104.9,49,105.4,49z"/>
		<path fill="#DA1C5C" d="M106.6,54.7c-0.6,0-0.9-0.4-0.9-1.1c0-0.6,0.3-1.5,1-2.6c0.7-1.1,1.2-1.6,1.6-1.6c0.1,0,0.2,0,0.4,0.1
			c0.1,0.1,0.2,0.2,0.2,0.3c-0.1,0.1-0.1,0.2-0.2,0.3c-0.1,0.1-0.2,0.2-0.3,0.3c-0.1,0.1-0.2,0.3-0.4,0.5c-0.2,0.2-0.3,0.4-0.5,0.6
			c-0.9,1.1-1.3,1.9-1.3,2.3c0,0.4,0.1,0.6,0.4,0.6c0.2,0,0.6-0.1,1-0.4c1-0.6,1.7-1.2,2.3-1.9c0.2-0.3,0.3-0.4,0.4-0.4
			c0.1,0,0.1,0,0.1,0.1c0,0.1-0.1,0.3-0.4,0.5c-0.3,0.3-0.5,0.5-0.6,0.6c-0.2,0.2-0.3,0.3-0.3,0.3c-0.1,0.1-0.2,0.1-0.3,0.3
			c-0.2,0.1-0.3,0.2-0.4,0.3c-0.1,0.1-0.2,0.1-0.3,0.3c-0.1,0.1-0.3,0.2-0.4,0.2c-0.1,0.1-0.2,0.1-0.4,0.2
			C107.2,54.7,107,54.7,106.6,54.7z M110.2,47.7c0.2,0.1,0.2,0.2,0.2,0.4c0,0.1-0.1,0.3-0.2,0.4c-0.1,0.1-0.3,0.2-0.5,0.2
			c-0.2,0-0.3-0.1-0.5-0.2c-0.1-0.1-0.2-0.3-0.2-0.4c0-0.3,0.2-0.5,0.7-0.5C109.9,47.6,110.1,47.6,110.2,47.7z"/>
		<path fill="#DA1C5C" d="M114.4,50.9c0,0.4-0.4,1.1-1.2,2c-0.9,1.1-1.7,1.7-2.3,1.7h-0.3c-0.3,0-0.5-0.2-0.7-0.5
			c-0.1-0.2-0.2-0.5-0.2-0.7c0-0.7,0.5-1.6,1.5-2.9c1-1.2,1.8-1.9,2.4-1.9c0.6,0,0.9,0.3,0.9,0.9c0,0.2,0,0.4-0.1,0.6
			c0,0,0.1,0.1,0.3,0.1c0.2,0,0.5-0.1,0.9-0.3c0,0.2-0.5,0.5-1.4,0.8C114.4,50.8,114.4,50.9,114.4,50.9z M113.3,50
			c-0.4,0-0.9,0.5-1.7,1.4c-0.7,0.9-1.1,1.6-1.1,2c0,0.4,0.1,0.6,0.4,0.6c0.5,0,1.1-0.4,1.9-1.3c0.8-0.9,1.1-1.5,1.1-1.9
			C113.8,50.7,113.6,50.4,113.3,50z"/>
		<path fill="#DA1C5C" d="M117.5,49.1c0.3,0,0.5,0.1,0.5,0.4c0,0.1,0,0.1-0.1,0.2c-1,1.4-1.7,2.5-1.9,3.2c2.7-2.6,4.3-4,4.9-4
			c0.1,0,0.1,0,0.2,0c0.3,0,0.5,0.1,0.5,0.4c0,0.1,0,0.1,0,0.2c0,0.1-0.3,0.4-0.7,0.9c-0.5,0.6-0.9,1.2-1.3,1.7
			c-0.4,0.5-0.5,1-0.5,1.4c0,0.4,0.1,0.5,0.2,0.5c0.5,0,1.4-0.7,2.6-2.1c0,0,0.1-0.1,0.1-0.2c0.2-0.2,0.3-0.3,0.3-0.3
			c0,0,0.1,0.1,0.1,0.2c0,0.1-0.1,0.3-0.2,0.4c-1.4,1.6-2.4,2.4-3,2.4c-0.6,0-0.8-0.3-0.8-0.9c0-0.6,0.2-1.3,0.7-2.1l1.1-1.8
			c-0.8,0.6-1.5,1.2-2.1,1.9c-0.6,0.7-1.2,1.3-1.7,2c-0.5,0.6-0.8,1-0.9,1c-0.2,0-0.3-0.1-0.4-0.2c-0.1-0.1-0.1-0.3-0.1-0.5
			c0-0.2,0.1-0.5,0.2-0.8c0.1-0.4,0.3-0.8,0.6-1.3l-1,1.1c-0.3,0.3-0.4,0.4-0.5,0.4c-0.1,0-0.1,0-0.1-0.1c0-0.1,0-0.2,0.1-0.2
			c0.4-0.4,0.8-0.8,1.1-1.2c0.3-0.4,0.9-1.1,1.8-2.2C117.3,49.2,117.4,49.1,117.5,49.1z"/>
	</g>
	<g>
		<g>
			<path fill="#FFFFFF" d="M83.6,32.3l-1.1,2.1v7h-3.6V18.5h3.6v10l4.8-10h3.6l-5.1,10.2l5.1,12.7h-3.7L83.6,32.3z"/>
			<path fill="#FFFFFF" d="M96.2,28.2h5v3.3h-5v6.7h6.3v3.3h-9.9V18.5h9.9v3.3h-6.3V28.2z"/>
			<path fill="#FFFFFF" d="M112.4,41.4c-0.2-0.6-0.3-1-0.3-2.8V35c0-2.1-0.7-2.9-2.4-2.9h-1.3v9.3h-3.6V18.5h5.5
				c3.8,0,5.4,1.7,5.4,5.3v1.8c0,2.4-0.8,3.9-2.4,4.7c1.8,0.8,2.4,2.5,2.4,4.9v3.5c0,1.1,0,1.9,0.4,2.8H112.4z M108.4,21.8v7h1.4
				c1.4,0,2.2-0.6,2.2-2.4v-2.3c0-1.6-0.6-2.4-1.9-2.4H108.4z"/>
			<path fill="#FFFFFF" d="M125.7,41.4c-0.2-0.6-0.3-1-0.3-2.8V35c0-2.1-0.7-2.9-2.4-2.9h-1.3v9.3h-3.6V18.5h5.5
				c3.8,0,5.4,1.7,5.4,5.3v1.8c0,2.4-0.8,3.9-2.4,4.7c1.8,0.8,2.4,2.5,2.4,4.9v3.5c0,1.1,0,1.9,0.4,2.8H125.7z M121.7,21.8v7h1.4
				c1.4,0,2.2-0.6,2.2-2.4v-2.3c0-1.6-0.6-2.4-1.9-2.4H121.7z"/>
			<path fill="#FFFFFF" d="M131.4,18.5h3.6v22.9h-3.6V18.5z"/>
			<path fill="#FFFFFF" d="M142.6,18.2c3.5,0,5.4,2.1,5.4,5.8v0.9h-3.4v-1.1c0-1.6-0.7-2.3-1.8-2.3c-1.2,0-1.8,0.6-1.8,2.3
				c0,4.7,7.1,5.6,7.1,12.2c0,3.7-1.9,5.8-5.4,5.8c-3.6,0-5.4-2.1-5.4-5.8v-1.6h3.4v1.8c0,1.6,0.7,2.2,1.9,2.2
				c1.2,0,1.9-0.6,1.9-2.2c0-4.7-7.1-5.6-7.1-12.2C137.2,20.3,139,18.2,142.6,18.2z"/>
		</g>
	</g>
</g>
</svg>
