<svg version="1.1" id="Layer_1" xmlns="http://www.w3.org/2000/svg" xmlns:xlink="http://www.w3.org/1999/xlink" x="0px" y="0px"
	 viewBox="0 0 148 62" enable-background="new 0 0 148 62" xml:space="preserve">
<g>
	<path fill="#004761" d="M0,0v62h62.748V0H0z M41.379,30.104c2.403,1.415,5.731,9.2,5.731,9.2s-8.513,0.813-10.917-0.601
		c-0.011-0.007-0.021-0.015-0.032-0.022c-0.569,3.03-5.004,8.996-5.004,8.996s-4.25-5.717-4.961-8.801
		c-2.788,1.168-10.559,0.427-10.559,0.427s3.329-7.785,5.733-9.2c0.046-0.027,0.095-0.048,0.141-0.074
		c-0.046-0.025-0.095-0.047-0.141-0.074c-2.404-1.416-5.733-9.201-5.733-9.201s7.646-0.729,10.49,0.399
		c0.424-2.97,5.03-9.167,5.03-9.167s5.065,6.81,5.065,9.575c0-0.068-0.005-0.142-0.011-0.214c2.425-1.402,10.899-0.593,10.899-0.593
		s-3.328,7.785-5.731,9.201c-0.046,0.026-0.095,0.048-0.142,0.074C41.284,30.056,41.333,30.077,41.379,30.104z"/>
	<ellipse fill="#004761" cx="31.374" cy="29.833" rx="3.87" ry="3.824"/>
	<g>
		<path fill="#004761" d="M83.215,51.466c0,0.402-0.053,0.771-0.158,1.107c-0.105,0.336-0.257,0.624-0.454,0.866
			c-0.197,0.241-0.443,0.429-0.738,0.563c-0.295,0.133-0.629,0.201-1.003,0.201c-0.251,0-0.482-0.031-0.692-0.091
			c-0.211-0.061-0.383-0.127-0.519-0.201v2.043h-1.232v-6.953c0.252-0.067,0.561-0.131,0.927-0.191
			c0.367-0.061,0.754-0.091,1.161-0.091c0.421,0,0.798,0.064,1.13,0.191c0.333,0.128,0.616,0.31,0.851,0.549
			c0.234,0.238,0.413,0.526,0.539,0.865C83.152,50.663,83.215,51.044,83.215,51.466z M81.952,51.487
			c0-0.543-0.124-0.966-0.372-1.268c-0.248-0.301-0.647-0.453-1.197-0.453c-0.116,0-0.236,0.005-0.361,0.015
			c-0.126,0.01-0.25,0.032-0.372,0.065v3.008c0.108,0.074,0.253,0.143,0.433,0.207c0.18,0.063,0.372,0.095,0.575,0.095
			c0.448,0,0.775-0.151,0.982-0.452C81.849,52.402,81.952,51.997,81.952,51.487z"/>
		<path fill="#004761" d="M84.192,51.487c0-0.463,0.069-0.869,0.208-1.218c0.139-0.349,0.324-0.639,0.555-0.871
			c0.231-0.231,0.496-0.405,0.794-0.523c0.299-0.117,0.604-0.176,0.916-0.176c0.733,0,1.305,0.225,1.716,0.674
			c0.411,0.449,0.616,1.12,0.616,2.012c0,0.068-0.002,0.143-0.005,0.227c-0.004,0.084-0.009,0.16-0.016,0.227h-3.513
			c0.034,0.423,0.185,0.75,0.453,0.981c0.268,0.231,0.657,0.347,1.166,0.347c0.298,0,0.572-0.027,0.819-0.081
			c0.248-0.053,0.443-0.111,0.585-0.171l0.164,0.996c-0.068,0.034-0.162,0.069-0.28,0.106c-0.119,0.037-0.254,0.07-0.407,0.101
			c-0.153,0.03-0.317,0.055-0.494,0.075c-0.176,0.019-0.356,0.03-0.539,0.03c-0.468,0-0.876-0.068-1.222-0.206
			c-0.346-0.137-0.632-0.329-0.855-0.574c-0.224-0.245-0.391-0.533-0.499-0.865C84.246,52.247,84.192,51.882,84.192,51.487z
			 M87.766,50.943c0-0.168-0.023-0.327-0.071-0.478c-0.047-0.151-0.117-0.282-0.209-0.392c-0.092-0.111-0.204-0.198-0.336-0.262
			c-0.132-0.064-0.29-0.095-0.474-0.095c-0.19,0-0.356,0.035-0.499,0.105c-0.143,0.07-0.263,0.163-0.361,0.277
			c-0.099,0.114-0.175,0.245-0.229,0.392c-0.055,0.148-0.092,0.299-0.112,0.453H87.766z"/>
		<path fill="#004761" d="M93.336,49.927c-0.102-0.033-0.243-0.068-0.423-0.105c-0.18-0.037-0.389-0.055-0.627-0.055
			c-0.136,0-0.28,0.014-0.433,0.04c-0.153,0.027-0.259,0.05-0.321,0.071v4.215h-1.232v-5.01c0.238-0.087,0.535-0.169,0.891-0.247
			c0.356-0.077,0.752-0.116,1.187-0.116c0.082,0,0.177,0.005,0.285,0.015c0.108,0.01,0.217,0.023,0.326,0.04
			c0.108,0.016,0.213,0.037,0.315,0.06c0.102,0.024,0.183,0.045,0.244,0.065L93.336,49.927z"/>
		<path fill="#004761" d="M96.574,46.285c0.285,0,0.536,0.026,0.754,0.076c0.217,0.05,0.38,0.096,0.488,0.136l-0.234,1.006
			c-0.116-0.054-0.25-0.097-0.402-0.131c-0.153-0.033-0.317-0.05-0.494-0.05c-0.197,0-0.363,0.029-0.499,0.085
			c-0.136,0.057-0.245,0.136-0.326,0.237c-0.082,0.1-0.14,0.223-0.173,0.367c-0.034,0.144-0.051,0.3-0.051,0.467v0.353h1.935v1.016
			h-1.935v4.246h-1.232v-5.634c0-0.678,0.18-1.209,0.54-1.595C95.305,46.478,95.848,46.285,96.574,46.285z"/>
		<path fill="#004761" d="M103.193,51.457c0,0.416-0.061,0.795-0.183,1.137c-0.123,0.342-0.295,0.634-0.519,0.875
			c-0.224,0.242-0.494,0.429-0.81,0.563c-0.316,0.134-0.664,0.201-1.044,0.201c-0.38,0-0.727-0.067-1.039-0.201
			c-0.312-0.134-0.58-0.322-0.804-0.563c-0.224-0.242-0.399-0.533-0.525-0.875c-0.125-0.342-0.188-0.721-0.188-1.137
			c0-0.416,0.063-0.793,0.188-1.132c0.126-0.339,0.303-0.629,0.53-0.871c0.228-0.241,0.497-0.427,0.809-0.558
			c0.312-0.131,0.655-0.196,1.029-0.196c0.373,0,0.718,0.066,1.033,0.196c0.315,0.131,0.586,0.317,0.81,0.558
			c0.224,0.242,0.399,0.532,0.524,0.871C103.13,50.663,103.193,51.041,103.193,51.457z M101.931,51.457
			c0-0.523-0.114-0.938-0.341-1.243c-0.227-0.305-0.544-0.458-0.952-0.458c-0.408,0-0.725,0.153-0.952,0.458
			c-0.228,0.305-0.341,0.719-0.341,1.243c0,0.53,0.114,0.949,0.341,1.257c0.227,0.309,0.544,0.463,0.952,0.463
			c0.407,0,0.725-0.154,0.952-0.463C101.817,52.406,101.931,51.986,101.931,51.457z"/>
		<path fill="#004761" d="M107.5,49.927c-0.102-0.033-0.243-0.068-0.422-0.105c-0.18-0.037-0.389-0.055-0.626-0.055
			c-0.136,0-0.28,0.014-0.433,0.04c-0.153,0.027-0.26,0.05-0.321,0.071v4.215h-1.232v-5.01c0.238-0.087,0.535-0.169,0.891-0.247
			c0.356-0.077,0.752-0.116,1.187-0.116c0.082,0,0.176,0.005,0.285,0.015c0.108,0.01,0.217,0.023,0.326,0.04
			c0.108,0.016,0.214,0.037,0.316,0.06c0.102,0.024,0.183,0.045,0.244,0.065L107.5,49.927z"/>
		<path fill="#004761" d="M111.604,51.326c0-0.55-0.07-0.947-0.209-1.192c-0.139-0.245-0.399-0.367-0.779-0.367
			c-0.136,0-0.285,0.01-0.448,0.031c-0.163,0.019-0.285,0.037-0.367,0.05v4.246h-1.232v-5.091c0.238-0.067,0.548-0.131,0.932-0.191
			c0.384-0.061,0.79-0.091,1.217-0.091c0.366,0,0.667,0.047,0.901,0.141c0.234,0.094,0.429,0.218,0.585,0.372
			c0.075-0.054,0.17-0.111,0.285-0.171c0.116-0.061,0.245-0.115,0.387-0.166c0.143-0.05,0.294-0.092,0.453-0.126
			c0.16-0.033,0.321-0.05,0.484-0.05c0.414,0,0.755,0.059,1.023,0.176c0.268,0.117,0.479,0.282,0.631,0.493
			c0.153,0.211,0.258,0.466,0.315,0.765c0.058,0.298,0.087,0.625,0.087,0.98v2.958h-1.232v-2.767c0-0.55-0.068-0.947-0.204-1.192
			c-0.136-0.245-0.397-0.367-0.784-0.367c-0.197,0-0.383,0.032-0.56,0.096c-0.176,0.063-0.309,0.126-0.397,0.186
			c0.054,0.168,0.092,0.346,0.112,0.533c0.02,0.188,0.03,0.389,0.03,0.604v2.908h-1.232V51.326z"/>
		<path fill="#004761" d="M119.149,48.7c0.407,0,0.75,0.05,1.028,0.151c0.279,0.101,0.501,0.241,0.668,0.422
			c0.166,0.181,0.285,0.401,0.356,0.659c0.071,0.258,0.107,0.542,0.107,0.85v3.189c-0.19,0.04-0.477,0.089-0.861,0.146
			c-0.383,0.057-0.816,0.085-1.298,0.085c-0.319,0-0.611-0.031-0.876-0.091c-0.265-0.061-0.49-0.158-0.677-0.292
			c-0.187-0.134-0.333-0.309-0.438-0.523c-0.105-0.215-0.158-0.479-0.158-0.795c0-0.302,0.059-0.557,0.178-0.764
			c0.119-0.208,0.28-0.377,0.484-0.509c0.204-0.131,0.439-0.225,0.708-0.282c0.268-0.057,0.548-0.085,0.84-0.085
			c0.135,0,0.278,0.009,0.428,0.025c0.149,0.017,0.309,0.045,0.479,0.085v-0.202c0-0.14-0.017-0.275-0.051-0.402
			c-0.034-0.127-0.094-0.24-0.179-0.336c-0.085-0.098-0.197-0.173-0.336-0.227c-0.139-0.053-0.314-0.081-0.524-0.081
			c-0.285,0-0.546,0.021-0.784,0.061c-0.238,0.04-0.431,0.087-0.581,0.14l-0.153-0.986c0.156-0.053,0.383-0.107,0.682-0.161
			C118.491,48.727,118.81,48.7,119.149,48.7z M119.251,53.238c0.38,0,0.668-0.021,0.866-0.061v-1.348
			c-0.068-0.02-0.167-0.04-0.295-0.06c-0.129-0.021-0.272-0.03-0.428-0.03c-0.136,0-0.273,0.009-0.412,0.03
			c-0.14,0.02-0.265,0.057-0.377,0.11c-0.112,0.054-0.202,0.129-0.27,0.226c-0.068,0.098-0.102,0.22-0.102,0.368
			c0,0.289,0.092,0.488,0.275,0.599C118.691,53.182,118.939,53.238,119.251,53.238z"/>
		<path fill="#004761" d="M122.815,49.001c0.238-0.067,0.547-0.131,0.927-0.191c0.38-0.061,0.801-0.091,1.263-0.091
			c0.435,0,0.797,0.059,1.09,0.176c0.292,0.117,0.524,0.282,0.697,0.493c0.173,0.211,0.296,0.466,0.367,0.765
			c0.071,0.298,0.107,0.625,0.107,0.98v2.958h-1.232v-2.767c0-0.282-0.019-0.521-0.056-0.719c-0.038-0.198-0.099-0.359-0.184-0.483
			c-0.085-0.124-0.2-0.214-0.346-0.271c-0.146-0.057-0.324-0.085-0.535-0.085c-0.156,0-0.319,0.01-0.488,0.031
			c-0.17,0.019-0.296,0.037-0.377,0.05v4.246h-1.232V49.001z"/>
		<path fill="#004761" d="M128.477,51.466c0-0.389,0.061-0.752,0.183-1.091c0.122-0.338,0.297-0.632,0.524-0.88
			c0.228-0.248,0.504-0.443,0.83-0.584c0.326-0.141,0.692-0.211,1.1-0.211c0.502,0,0.977,0.09,1.426,0.271l-0.265,0.996
			c-0.143-0.06-0.304-0.111-0.484-0.151c-0.18-0.04-0.372-0.06-0.575-0.06c-0.482,0-0.849,0.149-1.1,0.447
			c-0.251,0.299-0.377,0.72-0.377,1.263c0,0.523,0.119,0.938,0.356,1.243c0.238,0.305,0.638,0.458,1.201,0.458
			c0.211,0,0.418-0.02,0.621-0.061c0.204-0.04,0.38-0.09,0.53-0.151l0.173,1.007c-0.136,0.067-0.341,0.128-0.616,0.181
			c-0.275,0.054-0.558,0.081-0.85,0.081c-0.455,0-0.851-0.068-1.187-0.206c-0.336-0.137-0.614-0.329-0.835-0.574
			c-0.221-0.245-0.385-0.536-0.494-0.875C128.531,52.229,128.477,51.862,128.477,51.466z"/>
		<path fill="#004761" d="M133.283,51.487c0-0.463,0.07-0.869,0.209-1.218c0.139-0.349,0.324-0.639,0.555-0.871
			c0.231-0.231,0.496-0.405,0.794-0.523c0.299-0.117,0.604-0.176,0.916-0.176c0.733,0,1.306,0.225,1.716,0.674
			c0.411,0.449,0.616,1.12,0.616,2.012c0,0.068-0.002,0.143-0.005,0.227c-0.003,0.084-0.008,0.16-0.015,0.227h-3.513
			c0.034,0.423,0.185,0.75,0.453,0.981c0.268,0.231,0.657,0.347,1.166,0.347c0.298,0,0.572-0.027,0.819-0.081
			c0.248-0.053,0.443-0.111,0.585-0.171l0.164,0.996c-0.068,0.034-0.162,0.069-0.281,0.106c-0.118,0.037-0.254,0.07-0.407,0.101
			c-0.153,0.03-0.317,0.055-0.494,0.075c-0.176,0.019-0.357,0.03-0.54,0.03c-0.468,0-0.876-0.068-1.222-0.206
			c-0.346-0.137-0.632-0.329-0.855-0.574c-0.224-0.245-0.391-0.533-0.499-0.865C133.337,52.247,133.283,51.882,133.283,51.487z
			 M136.857,50.943c0-0.168-0.024-0.327-0.071-0.478c-0.047-0.151-0.117-0.282-0.208-0.392c-0.092-0.111-0.204-0.198-0.336-0.262
			c-0.132-0.064-0.29-0.095-0.473-0.095c-0.19,0-0.356,0.035-0.499,0.105c-0.143,0.07-0.264,0.163-0.361,0.277
			c-0.099,0.114-0.175,0.245-0.229,0.392c-0.055,0.148-0.092,0.299-0.112,0.453H136.857z"/>
	</g>
	<g>
		<g>
			<path fill="#58595B" d="M83.567,32.306l-1.128,2.097v7.045h-3.647V18.511h3.647v9.994l4.842-9.994h3.582l-5.074,10.223
				l5.074,12.714h-3.748L83.567,32.306z"/>
			<path fill="#58595B" d="M96.168,28.177h5.008v3.276h-5.008v6.717h6.301v3.277H92.52V18.511h9.949v3.276h-6.301V28.177z"/>
			<path fill="#58595B" d="M112.351,41.448c-0.199-0.59-0.331-0.951-0.331-2.819v-3.603c0-2.131-0.73-2.917-2.388-2.917h-1.26v9.339
				h-3.648V18.511h5.505c3.78,0,5.405,1.736,5.405,5.275v1.802c0,2.359-0.763,3.899-2.388,4.653c1.824,0.753,2.421,2.49,2.421,4.882
				v3.54c0,1.113,0.033,1.933,0.398,2.785H112.351z M108.372,21.788v7.045h1.426c1.36,0,2.188-0.59,2.188-2.425v-2.261
				c0-1.638-0.563-2.359-1.857-2.359H108.372z"/>
			<path fill="#58595B" d="M125.682,41.448c-0.199-0.59-0.331-0.951-0.331-2.819v-3.603c0-2.131-0.73-2.917-2.388-2.917h-1.26v9.339
				h-3.647V18.511h5.505c3.78,0,5.405,1.736,5.405,5.275v1.802c0,2.359-0.763,3.899-2.387,4.653c1.823,0.753,2.42,2.49,2.42,4.882
				v3.54c0,1.113,0.033,1.933,0.398,2.785H125.682z M121.703,21.788v7.045h1.426c1.36,0,2.189-0.59,2.189-2.425v-2.261
				c0-1.638-0.564-2.359-1.857-2.359H121.703z"/>
			<path fill="#58595B" d="M131.386,18.511h3.647v22.937h-3.647V18.511z"/>
			<path fill="#58595B" d="M142.594,18.249c3.548,0,5.372,2.097,5.372,5.767V24.9h-3.449v-1.114c0-1.639-0.663-2.261-1.824-2.261
				c-1.161,0-1.824,0.623-1.824,2.261c0,4.718,7.13,5.603,7.13,12.156c0,3.669-1.857,5.767-5.439,5.767
				c-3.581,0-5.439-2.097-5.439-5.767V34.37h3.449v1.802c0,1.639,0.73,2.228,1.89,2.228c1.161,0,1.89-0.589,1.89-2.228
				c0-4.719-7.129-5.604-7.129-12.156C137.222,20.346,139.046,18.249,142.594,18.249z"/>
		</g>
	</g>
</g>
</svg>
