<svg version="1.1" id="Layer_1" xmlns="http://www.w3.org/2000/svg" xmlns:xlink="http://www.w3.org/1999/xlink" x="0px" y="0px"
	 viewBox="0 0 148 62" enable-background="new 0 0 148 62" xml:space="preserve">
<g>
	<path fill="#ED1C24" d="M0,0v62h62.748V0H0z M41.379,30.105c2.403,1.415,5.731,9.2,5.731,9.2s-8.513,0.813-10.917-0.601
		c-0.011-0.006-0.021-0.015-0.032-0.021c-0.569,3.03-5.005,8.995-5.005,8.995s-4.25-5.717-4.961-8.801
		c-2.788,1.168-10.559,0.427-10.559,0.427s3.329-7.785,5.732-9.2c0.046-0.027,0.095-0.049,0.142-0.074
		c-0.046-0.026-0.095-0.047-0.142-0.074c-2.403-1.416-5.732-9.201-5.732-9.201s7.645-0.729,10.49,0.399
		c0.423-2.97,5.03-9.167,5.03-9.167s5.066,6.811,5.066,9.575c0-0.068-0.005-0.142-0.012-0.215
		c2.424-1.401,10.899-0.592,10.899-0.592s-3.328,7.785-5.731,9.201c-0.046,0.027-0.095,0.048-0.142,0.074
		C41.284,30.056,41.333,30.078,41.379,30.105z"/>
	<ellipse fill="#ED1C24" cx="31.374" cy="29.834" rx="3.87" ry="3.824"/>
	<g>
		<path fill="#ED1C24" d="M77.734,49.063h0.675v-1.083l0.796-0.251v1.334h1.196v0.71h-1.196v3.259c0,0.321,0.04,0.553,0.117,0.694
			c0.078,0.143,0.204,0.214,0.382,0.214c0.147,0,0.274-0.017,0.382-0.049c0.106-0.033,0.223-0.075,0.348-0.126l0.155,0.623
			c-0.162,0.08-0.341,0.144-0.537,0.191c-0.195,0.048-0.4,0.071-0.614,0.071c-0.369,0-0.633-0.118-0.791-0.355
			c-0.159-0.237-0.238-0.621-0.238-1.153v-3.369h-0.675V49.063z"/>
		<path fill="#ED1C24" d="M84.552,54.158c-0.177,0.161-0.402,0.285-0.675,0.372c-0.274,0.087-0.562,0.131-0.864,0.131
			c-0.347,0-0.647-0.067-0.902-0.203c-0.254-0.134-0.464-0.327-0.63-0.579c-0.166-0.251-0.288-0.552-0.365-0.902
			C81.038,52.628,81,52.234,81,51.796c0-0.933,0.173-1.644,0.52-2.132c0.347-0.489,0.837-0.733,1.472-0.733
			c0.206,0,0.411,0.025,0.614,0.077c0.203,0.051,0.385,0.153,0.548,0.306c0.163,0.153,0.293,0.369,0.394,0.646
			c0.099,0.276,0.149,0.638,0.149,1.082c0,0.125-0.005,0.256-0.017,0.399c-0.011,0.142-0.024,0.29-0.038,0.443H81.83
			c0,0.313,0.025,0.598,0.077,0.853c0.052,0.255,0.133,0.472,0.244,0.651c0.111,0.178,0.253,0.317,0.426,0.416
			c0.173,0.098,0.389,0.147,0.647,0.147c0.199,0,0.396-0.037,0.592-0.109c0.195-0.074,0.345-0.161,0.448-0.263L84.552,54.158z
			 M83.933,51.227c0.014-0.546-0.063-0.947-0.233-1.202c-0.169-0.255-0.402-0.384-0.697-0.384c-0.339,0-0.609,0.128-0.808,0.384
			c-0.199,0.255-0.317,0.656-0.354,1.202H83.933z"/>
		<path fill="#ED1C24" d="M88.78,54.256c-0.185,0.14-0.395,0.241-0.631,0.307c-0.236,0.065-0.483,0.099-0.742,0.099
			c-0.355,0-0.653-0.067-0.897-0.203c-0.244-0.134-0.44-0.327-0.592-0.579c-0.152-0.251-0.262-0.554-0.332-0.908
			c-0.07-0.353-0.105-0.745-0.105-1.175c0-0.933,0.168-1.644,0.503-2.132c0.336-0.489,0.817-0.733,1.444-0.733
			c0.288,0,0.535,0.025,0.742,0.077c0.207,0.051,0.383,0.117,0.531,0.197l-0.221,0.689c-0.295-0.168-0.616-0.253-0.963-0.253
			c-0.398,0-0.699,0.174-0.902,0.52c-0.203,0.346-0.304,0.892-0.304,1.635c0,0.299,0.022,0.58,0.066,0.842
			c0.044,0.264,0.118,0.491,0.221,0.684c0.104,0.194,0.236,0.347,0.399,0.459c0.163,0.113,0.365,0.17,0.609,0.17
			c0.191,0,0.371-0.032,0.537-0.099c0.166-0.065,0.301-0.142,0.404-0.229L88.78,54.256z"/>
		<path fill="#ED1C24" d="M92.499,54.53v-3.324c0-0.511-0.061-0.899-0.183-1.165c-0.122-0.266-0.364-0.4-0.725-0.4
			c-0.258,0-0.493,0.091-0.703,0.274c-0.21,0.182-0.352,0.412-0.426,0.689v3.926h-0.796v-7.655h0.796v2.701h0.034
			c0.147-0.189,0.33-0.345,0.547-0.465c0.218-0.12,0.489-0.18,0.813-0.18c0.244,0,0.455,0.033,0.636,0.099
			c0.181,0.065,0.33,0.179,0.449,0.339c0.118,0.161,0.206,0.374,0.265,0.64c0.059,0.267,0.089,0.596,0.089,0.989v3.533H92.499z"/>
		<path fill="#ED1C24" d="M97.369,54.53v-3.335c0-0.547-0.065-0.942-0.194-1.187c-0.129-0.245-0.36-0.367-0.692-0.367
			c-0.295,0-0.538,0.088-0.73,0.263s-0.332,0.39-0.421,0.645v3.981h-0.796v-5.468h0.576l0.143,0.579h0.034
			c0.14-0.196,0.33-0.364,0.57-0.502c0.239-0.139,0.526-0.208,0.857-0.208c0.236,0,0.445,0.033,0.625,0.099
			c0.181,0.065,0.333,0.176,0.454,0.334c0.122,0.157,0.214,0.366,0.277,0.628c0.062,0.262,0.093,0.594,0.093,0.995v3.543H97.369z"/>
		<path fill="#ED1C24" d="M99.151,51.796c0-0.984,0.171-1.707,0.515-2.171c0.343-0.462,0.832-0.694,1.467-0.694
			c0.679,0,1.178,0.238,1.499,0.71c0.321,0.475,0.481,1.193,0.481,2.155c0,0.992-0.173,1.718-0.52,2.177
			c-0.347,0.459-0.834,0.689-1.461,0.689c-0.679,0-1.179-0.237-1.5-0.711C99.311,53.477,99.151,52.759,99.151,51.796z
			 M99.981,51.796c0,0.321,0.02,0.613,0.061,0.875c0.041,0.262,0.106,0.488,0.199,0.677c0.092,0.191,0.212,0.338,0.36,0.443
			c0.147,0.106,0.325,0.159,0.531,0.159c0.383,0,0.671-0.17,0.863-0.509c0.192-0.339,0.288-0.888,0.288-1.646
			c0-0.313-0.021-0.602-0.061-0.869c-0.041-0.267-0.107-0.494-0.199-0.683c-0.093-0.19-0.212-0.337-0.36-0.443
			c-0.148-0.105-0.325-0.159-0.531-0.159c-0.377,0-0.663,0.172-0.858,0.515C100.079,50.499,99.981,51.046,99.981,51.796z"/>
		<path fill="#ED1C24" d="M105.028,53.229c0,0.255,0.035,0.438,0.105,0.546c0.07,0.11,0.168,0.165,0.294,0.165
			c0.155,0,0.336-0.04,0.542-0.121l0.078,0.634c-0.096,0.059-0.231,0.106-0.404,0.142c-0.173,0.037-0.33,0.055-0.471,0.055
			c-0.28,0-0.507-0.085-0.68-0.257c-0.173-0.171-0.26-0.472-0.26-0.902v-6.616h0.797V53.229z"/>
		<path fill="#ED1C24" d="M106.511,51.796c0-0.984,0.171-1.707,0.514-2.171c0.343-0.462,0.832-0.694,1.467-0.694
			c0.679,0,1.179,0.238,1.5,0.71c0.321,0.475,0.481,1.193,0.481,2.155c0,0.992-0.173,1.718-0.52,2.177
			c-0.347,0.459-0.834,0.689-1.461,0.689c-0.679,0-1.179-0.237-1.5-0.711C106.671,53.477,106.511,52.759,106.511,51.796z
			 M107.341,51.796c0,0.321,0.02,0.613,0.061,0.875c0.041,0.262,0.106,0.488,0.199,0.677c0.092,0.191,0.212,0.338,0.36,0.443
			c0.147,0.106,0.325,0.159,0.531,0.159c0.384,0,0.671-0.17,0.863-0.509c0.191-0.339,0.288-0.888,0.288-1.646
			c0-0.313-0.021-0.602-0.061-0.869c-0.041-0.267-0.107-0.494-0.199-0.683c-0.093-0.19-0.212-0.337-0.36-0.443
			c-0.147-0.105-0.325-0.159-0.531-0.159c-0.376,0-0.663,0.172-0.858,0.515C107.439,50.499,107.341,51.046,107.341,51.796z"/>
		<path fill="#ED1C24" d="M115.022,54.782c0,0.708-0.158,1.229-0.476,1.564c-0.317,0.334-0.778,0.503-1.383,0.503
			c-0.369,0-0.671-0.031-0.907-0.093c-0.236-0.063-0.428-0.133-0.576-0.213l0.232-0.679c0.148,0.066,0.31,0.127,0.487,0.186
			c0.177,0.059,0.394,0.087,0.652,0.087c0.45,0,0.759-0.124,0.924-0.372c0.166-0.248,0.249-0.664,0.249-1.247v-0.404h-0.033
			c-0.118,0.167-0.268,0.298-0.454,0.394c-0.185,0.094-0.421,0.142-0.708,0.142c-0.598,0-1.037-0.227-1.317-0.684
			c-0.281-0.456-0.421-1.172-0.421-2.149c0-0.94,0.183-1.651,0.548-2.132c0.366-0.481,0.906-0.722,1.622-0.722
			c0.347,0,0.646,0.033,0.896,0.099c0.251,0.065,0.473,0.142,0.664,0.229V54.782z M114.225,49.85
			c-0.221-0.117-0.505-0.175-0.853-0.175c-0.376,0-0.678,0.169-0.907,0.509c-0.229,0.339-0.343,0.88-0.343,1.623
			c0,0.306,0.018,0.589,0.055,0.848c0.037,0.259,0.1,0.485,0.188,0.677c0.088,0.194,0.201,0.344,0.338,0.449
			c0.136,0.106,0.304,0.159,0.503,0.159c0.281,0,0.502-0.073,0.664-0.218c0.162-0.146,0.28-0.365,0.354-0.657V49.85z"/>
		<path fill="#ED1C24" d="M117.69,52.594l0.232,1.061h0.055l0.166-1.061l0.841-3.532h0.809l-1.317,4.91
			c-0.104,0.394-0.207,0.762-0.31,1.104c-0.103,0.343-0.216,0.64-0.338,0.892c-0.121,0.251-0.258,0.449-0.409,0.591
			c-0.151,0.142-0.331,0.213-0.537,0.213c-0.207,0-0.387-0.033-0.543-0.099l0.133-0.744c0.103,0.036,0.206,0.044,0.31,0.022
			c0.103-0.022,0.201-0.084,0.293-0.186c0.092-0.103,0.177-0.253,0.255-0.454c0.077-0.201,0.146-0.461,0.205-0.782l-1.794-5.468
			h0.908L117.69,52.594z"/>
	</g>
	<g>
		<g>
			<path fill="#58595B" d="M83.567,32.306l-1.128,2.097v7.045h-3.647V18.511h3.647v9.994l4.842-9.994h3.582l-5.074,10.223
				l5.074,12.713h-3.748L83.567,32.306z"/>
			<path fill="#58595B" d="M96.168,28.177h5.008v3.277h-5.008v6.717h6.301v3.276H92.52V18.511h9.949v3.276h-6.301V28.177z"/>
			<path fill="#58595B" d="M112.351,41.448c-0.199-0.59-0.331-0.95-0.331-2.818v-3.604c0-2.13-0.729-2.917-2.388-2.917h-1.26v9.338
				h-3.648V18.511h5.505c3.781,0,5.406,1.736,5.406,5.275v1.803c0,2.359-0.763,3.899-2.387,4.653c1.823,0.753,2.42,2.489,2.42,4.882
				v3.539c0,1.113,0.033,1.933,0.398,2.785H112.351z M108.372,21.788v7.045h1.426c1.36,0,2.188-0.59,2.188-2.425v-2.261
				c0-1.638-0.563-2.359-1.857-2.359H108.372z"/>
			<path fill="#58595B" d="M125.682,41.448c-0.199-0.59-0.332-0.95-0.332-2.818v-3.604c0-2.13-0.73-2.917-2.388-2.917h-1.26v9.338
				h-3.647V18.511h5.505c3.78,0,5.405,1.736,5.405,5.275v1.803c0,2.359-0.764,3.899-2.388,4.653c1.823,0.753,2.42,2.489,2.42,4.882
				v3.539c0,1.113,0.034,1.933,0.398,2.785H125.682z M121.703,21.788v7.045h1.426c1.36,0,2.189-0.59,2.189-2.425v-2.261
				c0-1.638-0.564-2.359-1.857-2.359H121.703z"/>
			<path fill="#58595B" d="M131.386,18.511h3.647v22.937h-3.647V18.511z"/>
			<path fill="#58595B" d="M142.594,18.249c3.549,0,5.373,2.097,5.373,5.767V24.9h-3.449v-1.114c0-1.638-0.664-2.26-1.824-2.26
				c-1.161,0-1.824,0.623-1.824,2.26c0,4.719,7.13,5.604,7.13,12.157c0,3.67-1.857,5.767-5.439,5.767
				c-3.581,0-5.439-2.097-5.439-5.767V34.37h3.449v1.803c0,1.638,0.73,2.228,1.891,2.228c1.161,0,1.89-0.59,1.89-2.228
				c0-4.718-7.13-5.604-7.13-12.157C137.222,20.346,139.046,18.249,142.594,18.249z"/>
		</g>
	</g>
</g>
</svg>
